<?xml version="1.0" standalone="no"?><!DOCTYPE svg PUBLIC "-//W3C//DTD SVG 1.1//EN" "http://www.w3.org/Graphics/SVG/1.1/DTD/svg11.dtd"><svg t="1711520214535" class="icon" viewBox="0 0 1024 1024" version="1.1" xmlns="http://www.w3.org/2000/svg" p-id="1693" xmlns:xlink="http://www.w3.org/1999/xlink" width="200" height="200"><path d="M95.68 895.68V563.712h89.6v211.648l590.08-590.144h-211.84v-89.6h331.52a32 32 0 0 1 32 32V459.52h-89.6V249.856l-588.16 588.16h209.92v89.6h-331.52a32 32 0 0 1-32-32z m832.64-228.864v228.608a32 32 0 0 1-32 32h-227.776v-89.6h170.112v-171.008h89.6zM355.712 95.616v89.6H185.664v170.944h-89.6v-228.48a32 32 0 0 1 32-32h227.712z" p-id="1694"></path></svg>