<?xml version="1.0" standalone="no"?><!DOCTYPE svg PUBLIC "-//W3C//DTD SVG 1.1//EN" "http://www.w3.org/Graphics/SVG/1.1/DTD/svg11.dtd"><svg t="1711508123874" class="icon" viewBox="0 0 1024 1024" version="1.1" xmlns="http://www.w3.org/2000/svg" p-id="1170" xmlns:xlink="http://www.w3.org/1999/xlink" width="200" height="200"><path d="M283.136 780.928c21.845333 0 42.88 8.661333 58.709333 24.192l111.445334 109.184c54.4 53.290667 144.042667 13.44 144.042666-64V173.696c0-77.44-89.642667-117.290667-144.042666-64l-111.445334 109.226667a83.882667 83.882667 0 0 1-58.709333 24.149333H128c-47.146667 0-85.333333 39.466667-85.333333 88.192v361.472c0 48.725333 38.186667 88.192 85.333333 88.192h155.136zM652.586667 348.501333a41.685333 41.685333 0 0 1 60.330666 0L810.666667 449.621333l97.792-101.12a41.685333 41.685333 0 0 1 60.288 0c16.64 17.194667 16.64 45.141333 0 62.378667l-97.749334 101.077333 97.834667 101.162667c16.64 17.237333 16.64 45.141333 0 62.378667a41.685333 41.685333 0 0 1-60.330667 0L810.666667 574.293333l-97.834667 101.12a41.685333 41.685333 0 0 1-60.330667 0 45.184 45.184 0 0 1 0-62.293333l97.834667-101.205333-97.749333-101.12a45.184 45.184 0 0 1 0-62.336z" p-id="1171"></path></svg>