<?xml version="1.0" standalone="no"?><!DOCTYPE svg PUBLIC "-//W3C//DTD SVG 1.1//EN" "http://www.w3.org/Graphics/SVG/1.1/DTD/svg11.dtd"><svg t="1711508117463" class="icon" viewBox="0 0 1024 1024" version="1.1" xmlns="http://www.w3.org/2000/svg" p-id="1002" xmlns:xlink="http://www.w3.org/1999/xlink" width="200" height="200"><path d="M283.136 780.928c21.845333 0 42.88 8.661333 58.709333 24.192l111.445334 109.184c54.4 53.290667 144.042667 13.44 144.042666-64V173.696c0-77.44-89.642667-117.290667-144.042666-64l-111.445334 109.226667a83.882667 83.882667 0 0 1-58.709333 24.149333H128c-47.146667 0-85.333333 39.466667-85.333333 88.192v361.472c0 48.725333 38.186667 88.192 85.333333 88.192h155.136zM770.218667 171.989333a46.08 46.08 0 0 1 62.805333 0c197.76 187.946667 197.76 492.714667 0 680.661334a46.08 46.08 0 0 1-62.848 0 40.746667 40.746667 0 0 1 0-59.690667c163.114667-155.008 163.114667-406.272 0-561.28a40.746667 40.746667 0 0 1 0-59.690667z" p-id="1003"></path><path d="M653.056 321.024a46.08 46.08 0 0 1 62.805333 0c107.562667 102.186667 107.562667 267.946667 0 370.176a46.08 46.08 0 0 1-62.805333 0 40.746667 40.746667 0 0 1 0-59.733333c72.874667-69.205333 72.874667-181.504 0-250.752a40.746667 40.746667 0 0 1 0-59.733334z" p-id="1004"></path></svg>