<?xml version="1.0" standalone="no"?><!DOCTYPE svg PUBLIC "-//W3C//DTD SVG 1.1//EN" "http://www.w3.org/Graphics/SVG/1.1/DTD/svg11.dtd"><svg t="1718871823000" class="icon" viewBox="0 0 1024 1024" version="1.1" xmlns="http://www.w3.org/2000/svg" p-id="1255" xmlns:xlink="http://www.w3.org/1999/xlink" width="200" height="200"><path d="M886.4 995.09H137.6C61.73 995.09 0 933.36 0 857.49V305.61c0-75.87 61.73-137.6 137.6-137.6h85.02l20.59-70.19c5.88-20.04 17.83-37.25 34.54-49.77 16.72-12.52 36.6-19.14 57.48-19.14h348.83c20.89 0 40.76 6.62 57.48 19.14s28.66 29.73 34.54 49.77l20.59 70.19h89.71c75.87 0 137.6 61.73 137.6 137.6v551.88c0 75.87-61.73 137.6-137.6 137.6zM137.6 249.62c-30.87 0-55.99 25.12-55.99 55.99v551.88c0 30.87 25.12 55.99 55.99 55.99h748.8c30.87 0 55.99-25.12 55.99-55.99V305.61c0-30.87-25.12-55.99-55.99-55.99H766.14c-18.11 0-34.06-11.94-39.16-29.32l-29.19-99.5c-1.77-6.05-7.41-10.27-13.71-10.27H335.25c-6.3 0-11.94 4.22-13.71 10.27l-29.19 99.5c-5.1 17.38-21.04 29.32-39.16 29.32H137.61z" fill="#231815" p-id="1256"></path><path d="M512 747.55c-107.38 0-194.75-87.36-194.75-194.75S404.61 358.05 512 358.05s194.75 87.36 194.75 194.75S619.39 747.55 512 747.55z m0-307.88c-62.38 0-113.13 50.75-113.13 113.13S449.62 665.93 512 665.93s113.13-50.75 113.13-113.13S574.38 439.67 512 439.67z" fill="#231815" p-id="1257"></path></svg>